<svg width="454" height="454" viewBox="0 0 454 454" fill="none" xmlns="http://www.w3.org/2000/svg">
<g clip-path="url(#clip0_2001_2)">
<path fill-rule="evenodd" clip-rule="evenodd" d="M140 157.606C140.033 152.87 143.854 149.038 148.581 149H304.419C309.159 149 313 152.857 313 157.606V296.394C312.967 301.13 309.146 304.962 304.419 305H148.581C143.841 304.995 140 301.144 140 296.394V157.606ZM295.701 166.334H157.301V287.667L237.677 207.119C241.055 203.736 246.53 203.736 249.908 207.119L295.701 253.087V166.334ZM174.599 201C174.599 210.573 182.344 218.333 191.899 218.333C201.454 218.333 209.199 210.573 209.199 201C209.199 191.427 201.454 183.666 191.899 183.666C182.344 183.666 174.599 191.427 174.599 201Z" fill="#0C0C0C"/>
</g>
<defs>
<clipPath id="clip0_2001_2">
<rect width="454" height="454" fill="white"/>
</clipPath>
</defs>
</svg>
